<svg xmlns="http://www.w3.org/2000/svg" width="64" height="64" viewBox="0 0 64 64">
  <title>Aromatic materials</title>
  <g stroke="#08294B" stroke-width="2.8" stroke-linecap="round" stroke-linejoin="round">
  <path fill="#FFFFFF" d="M25 16v7c-8 4-14 10-14 19 0 10 8 16 21 16s21-6 21-16c0-9-6-15-14-19v-7Z"/>
  <path fill="#D8A456" stroke="none" d="M11 42c14-4 28 4 42 0 0 10-8 16-21 16S11 52 11 42Z"/>
  <path fill="none" d="M25 16v7c-8 4-14 10-14 19 0 10 8 16 21 16s21-6 21-16c0-9-6-15-14-19v-7Zm-2 0h18"/>
  <rect x="23" y="8" width="18" height="6" rx="2" fill="#08294B" stroke="none"/>
  </g>
</svg>
